<svg xmlns="http://www.w3.org/2000/svg" viewBox="0 0 24 24" aria-hidden="true">
  <path fill="#000" d="M7.75 2h8.5A5.76 5.76 0 0 1 22 7.75v8.5A5.76 5.76 0 0 1 16.25 22h-8.5A5.76 5.76 0 0 1 2 16.25v-8.5A5.76 5.76 0 0 1 7.75 2Zm0 2A3.75 3.75 0 0 0 4 7.75v8.5A3.75 3.75 0 0 0 7.75 20h8.5A3.75 3.75 0 0 0 20 16.25v-8.5A3.75 3.75 0 0 0 16.25 4h-8.5ZM12 7.15A4.85 4.85 0 1 1 12 16.85 4.85 4.85 0 0 1 12 7.15Zm0 2A2.85 2.85 0 1 0 12 14.85 2.85 2.85 0 0 0 12 9.15Zm5.1-2.55a1.15 1.15 0 1 1 0 2.3 1.15 1.15 0 0 1 0-2.3Z"/>
</svg>
