<svg xmlns="http://www.w3.org/2000/svg" viewBox="0 0 32 32" aria-hidden="true">
  <path fill="#000" d="M16.04 2.67C8.67 2.67 2.67 8.67 2.67 16.04c0 2.35.61 4.64 1.77 6.66l-1.88 6.74 6.91-1.82a13.3 13.3 0 0 0 6.57 1.68h.01c7.37 0 13.37-6 13.37-13.37S23.41 2.67 16.04 2.67Zm0 24.37h-.01c-1.97 0-3.9-.53-5.59-1.52l-.4-.24-4.1 1.08 1.1-4-.26-.41a11.02 11.02 0 0 1-1.7-5.9c0-6.05 4.92-10.97 10.97-10.97 2.93 0 5.69 1.14 7.76 3.22a10.9 10.9 0 0 1 3.21 7.76c0 6.05-4.92 10.98-10.98 10.98Zm6.02-8.22c-.33-.17-1.96-.97-2.26-1.08-.3-.11-.52-.17-.74.17-.22.33-.85 1.08-1.04 1.3-.19.22-.38.25-.71.08-.33-.17-1.4-.52-2.66-1.66-.98-.88-1.64-1.96-1.83-2.29-.19-.33-.02-.51.14-.67.15-.15.33-.38.49-.57.16-.19.22-.33.33-.55.11-.22.05-.41-.03-.58-.08-.17-.74-1.78-1.01-2.44-.27-.64-.54-.55-.74-.56h-.63c-.22 0-.58.08-.88.41-.3.33-1.15 1.12-1.15 2.73s1.18 3.17 1.34 3.39c.17.22 2.32 3.54 5.62 4.96.79.34 1.4.54 1.88.69.79.25 1.51.22 2.08.13.63-.09 1.96-.8 2.24-1.57.28-.77.28-1.43.19-1.57-.08-.14-.3-.22-.63-.38Z"/>
</svg>
